<svg width="20" height="10" viewBox="0 0 20 10" fill="none" xmlns="http://www.w3.org/2000/svg">
<path d="M14.0866 1.61264L16.635 4.05529L0.985564 4.05528C0.951542 4.05528 0.917925 4.05698 0.8848 4.06019C0.38782 4.10856 0 4.51089 0 4.99994C0 5.52168 0.441247 5.9446 0.985564 5.9446L16.635 5.94461L14.0866 8.38732C13.7017 8.75621 13.7017 9.35437 14.0866 9.72326C14.4715 10.0922 15.0955 10.0922 15.4805 9.72326L19.7113 5.66792C20.0962 5.29903 20.0962 4.70087 19.7113 4.33198L15.4805 0.276689C15.0955 -0.0922297 14.4715 -0.0922297 14.0866 0.276689C14.0385 0.322798 13.9964 0.372497 13.9603 0.424878C13.7077 0.791549 13.7498 1.28984 14.0866 1.61264Z" fill="#333340"/>
</svg>
