<svg width="17" height="16" viewBox="0 0 17 16" fill="none" xmlns="http://www.w3.org/2000/svg">
<path fill-rule="evenodd" clip-rule="evenodd" d="M10.5 1.33325C11.2364 1.33325 11.8333 1.93021 11.8333 2.66659V10.6666C11.8333 11.403 11.2364 11.9999 10.5 11.9999H3.83333C3.09695 11.9999 2.5 11.403 2.5 10.6666V2.66659C2.5 1.93021 3.09695 1.33325 3.83333 1.33325H10.5ZM10.5 2.33325C10.6841 2.33325 10.8333 2.48249 10.8333 2.66659V10.6666C10.8333 10.8507 10.6841 10.9999 10.5 10.9999H3.83333C3.64924 10.9999 3.5 10.8507 3.5 10.6666V2.66659C3.5 2.48249 3.64924 2.33325 3.83333 2.33325H10.5Z" fill="white"/>
<path d="M5.1665 14C5.1665 13.7239 5.39036 13.5 5.6665 13.5H11.8332C12.6616 13.5 13.3332 12.8284 13.3332 12V4.5C13.3332 4.22386 13.557 4 13.8332 4C14.1093 4 14.3332 4.22386 14.3332 4.5V12C14.3332 13.3807 13.2139 14.5 11.8332 14.5H5.6665C5.39036 14.5 5.1665 14.2761 5.1665 14Z" fill="white"/>
</svg>
