<svg width="12" height="12" viewBox="0 0 12 12" fill="none" xmlns="http://www.w3.org/2000/svg">
<path d="M8.82925 2.46432C9.0245 2.26906 9.3411 2.26905 9.53635 2.46432C9.7316 2.65958 9.7316 2.97616 9.53635 3.17142L6.7079 5.99988L9.53635 8.82828C9.7316 9.02353 9.7316 9.34013 9.53635 9.53538C9.3411 9.73063 9.0245 9.73063 8.82925 9.53538L6.0008 6.70698L3.17241 9.53538C3.16935 9.53843 3.16627 9.54143 3.16316 9.54438C2.96728 9.73058 2.65751 9.72758 2.4653 9.53538C2.31885 9.38893 2.28224 9.17423 2.35546 8.99368C2.37987 8.93348 2.41648 8.87708 2.4653 8.82828L5.2937 5.99988L2.4653 3.17145C2.27003 2.97619 2.27003 2.6596 2.4653 2.46434C2.66056 2.26908 2.97714 2.26908 3.1724 2.46434L6.0008 5.29273L8.82925 2.46432Z" fill="white"/>
</svg>
