<svg width="16" height="16" viewBox="0 0 16 16" fill="none" xmlns="http://www.w3.org/2000/svg">
<rect width="16" height="16" rx="8" fill="#EA5656"/>
<path d="M10.1392 5.14768C10.3362 4.95077 10.6554 4.95077 10.8523 5.14768C11.0492 5.34459 11.0492 5.66385 10.8523 5.86076L8.71309 7.99998L10.8523 10.1392C11.0492 10.3361 11.0492 10.6554 10.8523 10.8523C10.6554 11.0492 10.3362 11.0492 10.1392 10.8523L7.99999 8.71307L5.86077 10.8523C5.66385 11.0492 5.3446 11.0492 5.14769 10.8523C4.95077 10.6554 4.95077 10.3361 5.14769 10.1392L7.2869 7.99998L5.14769 5.86078C4.95078 5.66386 4.95078 5.34461 5.14769 5.1477C5.3446 4.95079 5.66385 4.95079 5.86077 5.1477L7.99999 7.28693L10.1392 5.14768Z" fill="white"/>
</svg>
