<svg width="16" height="16" viewBox="0 0 16 16" fill="none" xmlns="http://www.w3.org/2000/svg">
<path fill-rule="evenodd" clip-rule="evenodd" d="M13.8905 5.44285L5.72386 13.6095C5.47381 13.8595 5.13467 14 4.78105 14H2.66667C2.29848 14 2 13.7015 2 13.3333V11.219C2 10.8653 2.14047 10.5262 2.39053 10.2762L10.5572 2.10952C11.0779 1.58882 11.9221 1.58882 12.4428 2.10952L13.8905 3.55723C14.4112 4.07793 14.4112 4.92215 13.8905 5.44285ZM9.5944 4.48653L11.5135 6.40565L5.01675 12.9024C4.95424 12.9649 4.86945 13 4.78105 13H3V11.219C3 11.1306 3.03512 11.0458 3.09763 10.9833L9.5944 4.48653ZM10.3015 3.77941L12.2206 5.69854L13.1834 4.73575C13.3136 4.60557 13.3136 4.39451 13.1834 4.26434L11.7357 2.81663C11.6055 2.68645 11.3945 2.68645 11.2643 2.81663L10.3015 3.77941Z" fill="white"/>
</svg>
