<svg width="16" height="17" viewBox="0 0 16 17" fill="none" xmlns="http://www.w3.org/2000/svg">
<rect y="0.5" width="16" height="16" rx="8" fill="#3CBB41"/>
<path d="M11.9111 6.35827C12.0486 6.14416 12.0267 5.85253 11.8447 5.66308C11.6368 5.44657 11.2987 5.44551 11.0896 5.66071L6.70853 10.1681L4.91035 8.31894C4.70113 8.10377 4.36302 8.10492 4.15517 8.32151C4.05508 8.42578 4.00345 8.561 4.00017 8.69719C3.99994 8.70683 3.99994 8.71647 4.0002 8.72611C4.00379 8.86315 4.0563 8.99899 4.15764 9.10317L6.33227 11.3394C6.54056 11.5536 6.87684 11.5535 7.08507 11.3393L11.8424 6.44477C11.8686 6.41787 11.8915 6.38886 11.9111 6.35827Z" fill="white"/>
</svg>
