<svg width="16" height="17" viewBox="0 0 16 17" fill="none" xmlns="http://www.w3.org/2000/svg">
<rect y="0.5" width="16" height="16" rx="8" fill="#888888"/>
<path d="M8.00195 6.7C7.72579 6.7 7.50195 6.92386 7.50195 7.2V8.5C7.50195 8.67864 7.59723 8.84368 7.75195 8.933L9.05099 9.683C9.29015 9.82108 9.59595 9.73916 9.73399 9.5C9.87207 9.26084 9.79015 8.95504 9.55099 8.817L8.50195 8.21132V7.2C8.50195 6.92386 8.27811 6.7 8.00195 6.7Z" fill="white"/>
<path fill-rule="evenodd" clip-rule="evenodd" d="M8 12.5C10.2091 12.5 12 10.7091 12 8.5C12 6.29086 10.2091 4.5 8 4.5C5.79086 4.5 4 6.29086 4 8.5C4 10.7091 5.79086 12.5 8 12.5ZM8 11.5C9.65684 11.5 11 10.1568 11 8.5C11 6.84315 9.65684 5.5 8 5.5C6.34315 5.5 5 6.84315 5 8.5C5 10.1568 6.34315 11.5 8 11.5Z" fill="white"/>
</svg>
